<?xml version="1.0" encoding="utf-8"?>
<!-- Generator: Adobe Illustrator 24.0.0, SVG Export Plug-In . SVG Version: 6.00 Build 0)  -->
<svg version="1.1" id="Object" xmlns="http://www.w3.org/2000/svg" xmlns:xlink="http://www.w3.org/1999/xlink" x="0px" y="0px"
	 viewBox="0 0 5894.1 4000" style="enable-background:new 0 0 5894.1 4000;" xml:space="preserve">
<style type="text/css">
	.st0{fill:#8E0202;}
	.st1{opacity:0.74;}
	.st2{fill:#B70000;}
	.st3{opacity:0.48;}
	.st4{opacity:0;fill:#FFFFFF;}
	.st5{opacity:0.1111;fill:#E3E3E3;}
	.st6{opacity:0.2222;fill:#C6C6C6;}
	.st7{opacity:0.3333;fill:#AAAAAA;}
	.st8{opacity:0.4444;fill:#8E8E8E;}
	.st9{opacity:0.5556;fill:#717171;}
	.st10{opacity:0.6667;fill:#555555;}
	.st11{opacity:0.7778;fill:#393939;}
	.st12{opacity:0.8889;fill:#1C1C1C;}
	.st13{fill:#FFFFFF;}
</style>
<rect id="Background" y="-619.9" class="st0" width="5894.1" height="4619.9"/>
<g id="Snowflakes" class="st1">
	<path class="st2" d="M767.2,2392.6l-100.8,27l76.9,44.4l-20.4,35.3L646,2455l27,100.8l-31.6,8.5L607,2435.6l0,0l-1-3.8l-35.2-20.3
		l5.7,64.6c0.8,9.2-9.7,15-17.1,9.4l-47.3-36.1v36.7l96.9,97l-23.1,23.1l-73.8-73.8v88.8h-40.7v-88.8l-73.8,73.8l-23.1-23.1
		l94.2-94.2l0,0l2.7-2.7v-40.7l-53.1,37.2c-7.6,5.3-17.9-0.9-16.7-10.1l7.6-59l-31.8,18.3L342,2564.2l-31.6-8.5l27-100.8l-76.9,44.4
		l-20.4-35.3l76.9-44.4l-100.9-27l8.5-31.6l132.5,35.5l35.2-20.3l-58.8-27.4c-8.4-3.9-8.1-15.9,0.4-19.5l54.9-22.9l-31.8-18.3
		l-132.4,35.5l-8.5-31.6l100.8-27l-76.9-44.4l20.4-35.3l76.9,44.4l-27-100.8l31.6-8.5l34.5,128.6l0,0l1,3.8l35.2,20.3l-5.7-64.6
		c-0.8-9.2,9.7-15,17.1-9.4l47.3,36.1v-36.7l-2.8-2.8l0,0l-94.2-94.2l23.1-23.1l73.8,73.8v-88.8h40.7v88.8l73.8-73.8l23.1,23.1
		l-96.9,96.9v40.7l53.1-37.2c7.6-5.3,17.9,0.9,16.7,10.1l-7.6,59l31.8-18.3l35.4-132.4l31.6,8.5l-27,100.8l76.9-44.4l20.4,35.3
		l-76.9,44.4l100.9,27l-8.5,31.6l-128.7-34.4l0,0l-3.8-1l-35.2,20.3l58.8,27.4c8.4,3.9,8.1,15.9-0.4,19.5l-54.9,22.9l31.8,18.3
		l3.7-1l0,0l128.6-34.5L767.2,2392.6z M429.7,2231.3l6.6,55.6l35,20.2l0.2-42.6L429.7,2231.3z M364.6,2340.3l51.4,22.2l35-20.1
		l-36.8-21.6L364.6,2340.3z M426.7,2451.7l44.7-33.7l-0.1-40.4l-36.9,21.3L426.7,2451.7z M554.2,2453.1l-7-55.5l-35.1-20l0.1,42.6
		L554.2,2453.1z M618.8,2344.1l-51.5-22l-35,20.2l36.9,21.4L618.8,2344.1z M556.4,2232.9l-44.6,33.8l0.3,40.4l36.9-21.4
		L556.4,2232.9z"/>
	<path class="st2" d="M2267.2,3343.8l-151.3,40.6l115.5,66.7l-30.6,53l-115.5-66.7l40.6,151.4l-47.4,12.7l-51.8-193.1l0,0l-1.5-5.7
		l-52.8-30.5l8.5,96.9c1.2,13.8-14.6,22.5-25.6,14.1l-71-54.2v55l145.5,145.6l-34.7,34.7l-110.8-110.8v133.3h-61.2v-133.3
		l-110.8,110.7l-34.7-34.7l141.4-141.3l0,0l4.1-4.1V3423l-79.7,55.9c-11.4,8-26.8-1.4-25-15.1l11.5-88.6l-47.7,27.5l-53.2,198.7
		l-47.4-12.7l40.5-151.3l-115.5,66.7l-30.6-53l115.5-66.7l-151.4-40.5l12.7-47.4l198.8,53.2l52.8-30.5l-88.2-41.1
		c-12.6-5.9-12.2-23.9,0.6-29.3l82.4-34.3l-47.7-27.5l-198.7,53.3l-12.7-47.4l151.3-40.6l-115.5-66.7l30.6-53l115.5,66.7
		l-40.6-151.4l47.4-12.7l51.8,193.1l0,0l1.5,5.7l52.8,30.5l-8.5-96.9c-1.2-13.8,14.6-22.5,25.6-14.1l71,54.2v-55l-4.2-4.2l0,0
		l-141.3-141.4l34.7-34.7l110.8,110.8v-133.3h61.2v133.3l110.8-110.7l34.7,34.7l-145.5,145.4v61.1l79.7-55.9
		c11.4-8,26.8,1.4,25,15.1l-11.5,88.6l47.7-27.5l53.2-198.7l47.4,12.7l-40.5,151.3l115.5-66.7l30.6,53l-115.5,66.7l151.4,40.5
		l-12.7,47.4l-193.1-51.7l0,0l-5.7-1.5l-52.8,30.5l88.2,41.1c12.6,5.9,12.2,23.9-0.6,29.3l-82.4,34.3l47.7,27.5l5.6-1.5l0,0
		l193.1-51.8L2267.2,3343.8z M1760.7,3101.6l9.9,83.4l52.5,30.3l0.3-64L1760.7,3101.6z M1662.9,3265.2l77.1,33.3l52.6-30.2
		l-55.2-32.4L1662.9,3265.2z M1756.2,3432.4l67.1-50.5l-0.2-60.6l-55.4,32L1756.2,3432.4z M1947.5,3434.6l-10.5-83.4l-52.7-30
		l0.2,64L1947.5,3434.6z M2044.5,3271l-77.2-33l-52.5,30.4l55.3,32.1L2044.5,3271z M1950.9,3104.1l-67,50.7l0.4,60.6l55.3-32.2
		L1950.9,3104.1z"/>
	<path class="st2" d="M926.2,3354l-54.3,15.5l42,23.4l-10.7,19.3l-42-23.4l15.5,54.3l-17,4.9l-19.8-69.3l0,0l-0.6-2.1l-19.2-10.7
		l3.6,34.9c0.5,5-5.1,8.2-9.2,5.2l-25.9-19.1l0.3,19.8l53.3,51.7l-12.3,12.7l-40.6-39.3l0.8,48.1l-22,0.3l-0.8-48.1l-39.3,40.6
		l-12.7-12.3l50.2-51.8l0,0l1.5-1.5l-0.3-22l-28.4,20.6c-4.1,2.9-9.7-0.3-9.1-5.3l3.6-32l-17,10.2l-18,71.9l-17.2-4.3l13.7-54.8
		l-41.2,24.7l-11.3-18.9l41.3-24.7l-54.8-13.7l4.3-17.2l72,18.1l18.9-11.3l-32-14.3c-4.6-2-4.5-8.6,0-10.6l29.5-12.9l-17.4-9.7
		l-71.3,20.3l-4.9-17l54.3-15.5l-42-23.4l10.7-19.3l42,23.4l-15.5-54.3l17-4.9l19.8,69.3l0,0l0.6,2.1l19.2,10.7l-3.6-34.9
		c-0.5-5,5.1-8.2,9.2-5.2l25.9,19.1l-0.3-19.8l-1.5-1.5l0,0l-51.8-50.2l12.3-12.7l40.6,39.3l-0.8-48.1l22-0.3l0.8,48.1l39.3-40.6
		l12.7,12.3l-51.6,53.3l0.3,22l28.4-20.6c4.1-2.9,9.7,0.3,9.1,5.3l-3.6,32l17-10.2l18-71.9l17.2,4.3l-13.7,54.8l41.2-24.7l11.3,18.9
		l-41.3,24.7l54.8,13.7l-4.3,17.2l-69.9-17.5l0,0l-2.1-0.5l-18.9,11.3l32,14.3c4.6,2,4.5,8.6,0,10.6l-29.5,12.8l17.4,9.7l2-0.6l0,0
		l69.3-19.8L926.2,3354z M742.2,3269.5l4,30l19.1,10.6l-0.3-23.1L742.2,3269.5z M707.9,3329.1l28,11.6l18.8-11.2l-20.1-11.4
		L707.9,3329.1z M742.5,3388.8l23.9-18.6l-0.4-21.9l-19.8,11.8L742.5,3388.8z M811.5,3388.5l-4.2-30L788,3348l0.4,23.1L811.5,3388.5
		z M845.5,3329l-28-11.5l-18.7,11.3l20.1,11.3L845.5,3329z M810.8,3269.3L787,3288l0.5,21.9l19.8-11.9L810.8,3269.3z"/>
	<path class="st2" d="M3163.4,3579.1l-75.1,20.2l57.3,33.1l-15.2,26.3l-57.3-33.1l20.2,75.2l-23.5,6.3l-25.7-95.9l0,0l-0.8-2.8
		l-26.2-15.1l4.2,48.1c0.6,6.9-7.2,11.2-12.7,7l-35.2-26.9v27.3l72.2,72.3l-17.2,17.2l-55-55v66.2h-30.4v-66.2l-55,55l-17.2-17.2
		l70.2-70.2l0,0l2-2v-30.3l-39.6,27.7c-5.7,4-13.3-0.7-12.4-7.5l5.7-44l-23.7,13.7l-26.4,98.7l-23.6-6.3l20.1-75.1l-57.3,33.1
		l-15.2-26.3l57.3-33.1l-75.2-20.1l6.3-23.6l98.7,26.4l26.2-15.1l-43.8-20.4c-6.3-2.9-6.1-11.9,0.3-14.5l40.9-17.1l-23.7-13.7
		l-98.7,26.5l-6.3-23.5l75.1-20.2l-57.3-33.1l15.2-26.3l57.3,33.1l-20.2-75.2l23.5-6.3l25.7,95.9l0,0l0.8,2.8l26.2,15.1l-4.2-48.1
		c-0.6-6.9,7.2-11.2,12.7-7l35.2,26.9v-27.3l-2.1-2.1l0,0l-70.2-70.2l17.2-17.2l55,55v-66.2h30.4v66.2l55-55l17.2,17.2l-72.2,72.2
		v30.3l39.6-27.7c5.7-4,13.3,0.7,12.4,7.5l-5.7,44l23.7-13.7l26.4-98.7l23.6,6.3l-20.1,75.1l57.3-33.1l15.2,26.3l-57.3,33.1
		l75.2,20.1l-6.3,23.6l-95.9-25.7l0,0l-2.8-0.8l-26.2,15.1l43.8,20.4c6.3,2.9,6.1,11.9-0.3,14.5l-40.9,17.1l23.7,13.7l2.8-0.7l0,0
		l95.9-25.7L3163.4,3579.1z M2911.9,3458.8l4.9,41.4l26.1,15.1l0.1-31.8L2911.9,3458.8z M2863.4,3540l38.3,16.6l26.1-15l-27.4-16.1
		L2863.4,3540z M2909.7,3623.1l33.3-25.1l-0.1-30.1l-27.5,15.9L2909.7,3623.1z M3004.7,3624.2l-5.2-41.4l-26.2-14.9l0.1,31.8
		L3004.7,3624.2z M3052.9,3542.9l-38.4-16.4l-26,15.1l27.5,16L3052.9,3542.9z M3006.4,3460.1l-33.2,25.2l0.2,30.1l27.5-16
		L3006.4,3460.1z"/>
	<path class="st2" d="M1385.1,368.1l-125.5,33.7l95.8,55.3L1330,501l-95.8-55.3l33.7,125.5l-39.3,10.6l-43-160.2l0,0l-1.3-4.7
		l-43.8-25.3l7.1,80.4c1,11.5-12.1,18.7-21.3,11.7l-58.9-45v45.6l120.7,120.8l-28.8,28.8l-91.9-91.9v110.6h-50.7V542l-91.9,91.9
		L896,605.1l117.3-117.2l0,0l3.4-3.4v-50.7l-66.1,46.3c-9.4,6.6-22.2-1.1-20.8-12.6l9.5-73.5L899.8,417l-44.1,164.8l-39.3-10.5
		L850,445.7L754.2,501l-25.4-43.9l95.8-55.3L699,368.2l10.5-39.3L874.5,373l43.8-25.3l-73.2-34.1c-10.5-4.9-10.1-19.8,0.5-24.3
		l68.4-28.5L874.5,238l-164.8,44.2l-10.6-39.3l125.5-33.7l-95.8-55.3l25.4-43.9l95.8,55.3L816.3,39.8l39.3-10.6l43,160.2l0,0
		l1.3,4.7l43.8,25.3l-7.1-80.4c-1-11.5,12.1-18.7,21.3-11.7l58.9,45v-45.6l-3.5-3.5l0,0L896,5.9l28.8-28.8l91.9,91.9V-41.6h50.7V69
		l91.9-91.9L1188.2,6l-120.7,120.6v50.7l66.1-46.3c9.4-6.6,22.2,1.1,20.8,12.6l-9.5,73.5l39.6-22.8l44.1-164.8l39.3,10.5
		l-33.6,125.5L1330,110l25.4,43.9l-95.8,55.3l125.6,33.6l-10.5,39.3l-160.2-42.9l0,0l-4.7-1.3l-43.8,25.3l73.2,34.1
		c10.5,4.9,10.1,19.8-0.5,24.3l-68.4,28.5l39.6,22.8l4.6-1.2l0,0l160.2-43L1385.1,368.1z M965,167.2l8.2,69.2l43.6,25.1l0.2-53.1
		L965,167.2z M883.8,302.9l64,27.7l43.6-25l-45.8-26.8L883.8,302.9z M961.2,441.7l55.7-41.9l-0.2-50.3l-46,26.5L961.2,441.7z
		 M1119.9,443.4l-8.7-69.1l-43.7-24.8l0.2,53.1L1119.9,443.4z M1200.4,307.7l-64.1-27.4l-43.5,25.2l45.9,26.7L1200.4,307.7z
		 M1122.7,169.3l-55.5,42.1l0.3,50.3l45.9-26.7L1122.7,169.3z"/>
	<path class="st2" d="M5173.9,2361.1l128.6,34.5l0,0l3.7,1l31.8-18.3l-54.9-22.9c-8.5-3.6-8.8-15.6-0.4-19.5l58.8-27.4l-35.2-20.3
		l-3.8,1l0,0l-128.7,34.4l-8.5-31.6l100.9-27l-76.9-44.4l20.4-35.3l76.9,44.4l-27-100.8l31.6-8.5l35.4,132.4l31.8,18.3l-7.6-59
		c-1.2-9.2,9.1-15.4,16.7-10.1l53.1,37.2v-40.7l-96.9-96.9l23.1-23.1l73.8,73.8v-88.8h40.7v88.8l73.8-73.8l23.1,23.1l-94.2,94.2l0,0
		l-2.8,2.8v36.7l47.3-36.1c7.4-5.6,17.9,0.2,17.1,9.4l-5.7,64.6l35.2-20.3l1-3.8l0,0l34.5-128.6l31.6,8.5l-27,100.8l76.9-44.4
		l20.4,35.3l-76.9,44.4l100.8,27l-8.5,31.6l-132.4-35.5l-31.8,18.3l54.9,22.9c8.5,3.6,8.8,15.6,0.4,19.5l-58.8,27.4l35.2,20.3
		l132.5-35.5l8.5,31.6l-100.9,27l76.9,44.4l-20.4,35.3l-76.9-44.4l27,100.8l-31.6,8.5l-35.4-132.4l-31.8-18.3l7.6,59
		c1.2,9.2-9.1,15.4-16.7,10.1l-53.1-37.2v40.7l2.7,2.7l0,0l94.2,94.2l-23.1,23.1l-73.8-73.8v88.8h-40.7v-88.8l-73.8,73.8l-23.1-23.1
		l96.9-97v-36.7l-47.3,36.1c-7.4,5.6-17.9-0.2-17.1-9.4l5.7-64.6l-35.2,20.3l-1,3.8l0,0l-34.5,128.6l-31.6-8.5l27-100.8l-76.9,44.4
		l-20.4-35.3l76.9-44.4l-100.8-27L5173.9,2361.1z M5461.1,2264.4l0.2,42.6l35-20.2l6.6-55.6L5461.1,2264.4z M5518.4,2320.8
		l-36.8,21.6l35,20.1l51.4-22.2L5518.4,2320.8z M5498.2,2398.9l-36.9-21.3l-0.1,40.4l44.7,33.7L5498.2,2398.9z M5420.4,2420.3
		l0.1-42.6l-35.1,20l-7,55.5L5420.4,2420.3z M5363.3,2363.7l36.9-21.4l-35-20.2l-51.5,22L5363.3,2363.7z M5383.6,2285.7l36.9,21.4
		l0.3-40.4l-44.6-33.8L5383.6,2285.7z"/>
	<path class="st2" d="M3848.7,3357.2l193.1,51.8l0,0l5.6,1.5l47.7-27.5l-82.4-34.3c-12.8-5.3-13.2-23.4-0.6-29.3l88.2-41.1
		l-52.8-30.5l-5.7,1.5l0,0l-193.1,51.7l-12.7-47.4l151.4-40.5l-115.5-66.7l30.6-53l115.5,66.7l-40.5-151.3l47.4-12.7l53.2,198.7
		l47.7,27.5l-11.5-88.6c-1.8-13.8,13.7-23.1,25-15.1l79.7,55.9v-61.1l-145.5-145.4l34.7-34.7l110.8,110.7v-133.3h61.2V3044
		l110.8-110.8l34.7,34.7l-141.3,141.4l0,0l-4.2,4.2v55l71-54.2c11-8.4,26.9,0.3,25.6,14.1l-8.5,96.9l52.8-30.5l1.5-5.7l0,0
		l51.8-193.1l47.4,12.7l-40.6,151.4l115.5-66.7l30.6,53l-115.5,66.7l151.3,40.6l-12.7,47.4l-198.7-53.3l-47.7,27.5l82.4,34.3
		c12.8,5.3,13.2,23.4,0.6,29.3l-88.2,41.1l52.8,30.5l198.8-53.2l12.7,47.4l-151.4,40.5l115.5,66.7l-30.6,53l-115.5-66.7l40.5,151.3
		l-47.4,12.7l-53.2-198.7l-47.7-27.5l11.5,88.6c1.8,13.8-13.7,23.1-25,15.1l-79.7-55.9v61.1l4.1,4.1l0,0l141.4,141.3l-34.7,34.7
		l-110.8-110.7v133.3h-61.2v-133.3l-110.8,110.8l-34.7-34.7l145.5-145.6v-55l-71,54.2c-11,8.4-26.9-0.3-25.6-14.1l8.5-96.9
		l-52.8,30.5l-1.5,5.7l0,0l-51.8,193.1l-47.4-12.7l40.6-151.4l-115.5,66.7l-30.6-53l115.5-66.7l-151.3-40.6L3848.7,3357.2z
		 M4279.8,3212.1l0.3,64l52.5-30.3l9.9-83.4L4279.8,3212.1z M4365.8,3296.8l-55.2,32.4l52.6,30.2l77.1-33.3L4365.8,3296.8z
		 M4335.5,3414l-55.4-32l-0.2,60.6l67.1,50.5L4335.5,3414z M4218.7,3446.1l0.2-64l-52.7,30l-10.5,83.4L4218.7,3446.1z M4133,3361.2
		l55.3-32.1l-52.5-30.4l-77.2,33L4133,3361.2z M4163.5,3244.1l55.3,32.2l0.4-60.6l-67-50.7L4163.5,3244.1z"/>
	<path class="st2" d="M5227.4,3488l69.3,19.8l0,0l2,0.6l17.4-9.7l-29.5-12.8c-4.6-2-4.6-8.5,0-10.6l32-14.3l-18.9-11.3l-2.1,0.5l0,0
		l-69.9,17.5l-4.3-17.2l54.8-13.7l-41.3-24.7l11.3-18.9l41.2,24.7l-13.7-54.8l17.2-4.3l18,71.9l17,10.2l-3.6-32
		c-0.6-5,5.1-8.3,9.1-5.3l28.4,20.6l0.3-22l-51.6-53.3l12.7-12.3l39.3,40.6l0.8-48.1l22,0.3l-0.8,48.1l40.6-39.3l12.3,12.7
		l-51.8,50.2l0,0l-1.5,1.5l-0.3,19.8l25.9-19.1c4-3,9.7,0.2,9.2,5.2l-3.6,34.9l19.2-10.7l0.6-2.1l0,0l19.8-69.3l17,4.9l-15.5,54.3
		l42-23.4l10.7,19.3l-42,23.4l54.3,15.5l-4.9,17l-71.3-20.3l-17.4,9.7l29.5,12.9c4.6,2,4.6,8.5,0,10.6l-32,14.3l18.9,11.3l72-18.1
		l4.3,17.2l-54.8,13.7l41.3,24.7l-11.3,18.9l-41.2-24.7l13.7,54.8l-17.2,4.3l-18-71.9l-17-10.2l3.6,32c0.6,5-5.1,8.3-9.1,5.3
		l-28.4-20.6l-0.3,22l1.5,1.5l0,0l50.2,51.8l-12.7,12.3l-39.3-40.6l-0.8,48.1l-22-0.3l0.8-48.1l-40.6,39.3l-12.3-12.7l53.3-51.7
		l0.3-19.8l-25.9,19.1c-4,3-9.7-0.2-9.2-5.2l3.6-34.9l-19.2,10.7l-0.6,2.1l0,0l-19.8,69.3l-17-4.9l15.5-54.3l-42,23.4l-10.7-19.3
		l42-23.4l-54.3-15.5L5227.4,3488z M5383.6,3438.1l-0.3,23.1l19.1-10.6l4-30L5383.6,3438.1z M5414.2,3469.1l-20.1,11.4l18.8,11.2
		l28-11.6L5414.2,3469.1z M5402.6,3511.2l-19.8-11.8l-0.4,21.9l23.9,18.6L5402.6,3511.2z M5360.3,3522.1l0.4-23.1l-19.2,10.5
		l-4.2,30L5360.3,3522.1z M5329.9,3491l20.1-11.3l-18.7-11.3l-28,11.5L5329.9,3491z M5341.5,3449l19.8,11.9l0.5-21.9l-23.8-18.7
		L5341.5,3449z"/>
	<path class="st2" d="M2897,393.5l163.1,43.7l0,0l4.7,1.3l40.3-23.3l-69.6-29c-10.8-4.5-11.1-19.8-0.5-24.7l74.5-34.7l-44.6-25.8
		l-4.8,1.3l0,0L2896.9,346l-10.7-40.1l127.8-34.2l-97.5-56.3l25.8-44.7l97.5,56.3l-34.2-127.8l40.1-10.7l44.9,167.8l40.3,23.3
		l-9.7-74.8c-1.5-11.6,11.5-19.5,21.1-12.8l67.3,47.2v-51.6L3086.7,64.8l29.3-29.3l93.6,93.5V16.4h51.6V129l93.5-93.6l29.3,29.3
		l-119.3,119.4l0,0l-3.5,3.5v46.5l59.9-45.8c9.3-7.1,22.7,0.2,21.6,11.9l-7.2,81.9l44.6-25.8l1.3-4.8l0,0l43.7-163.1l40,10.7
		L3431,227l97.5-56.3l25.8,44.7l-97.5,56.3l127.8,34.3l-10.7,40l-167.8-45l-40.3,23.3l69.6,29c10.8,4.5,11.1,19.8,0.5,24.7
		l-74.5,34.7l44.6,25.8l167.9-44.9l10.7,40.1l-127.8,34.2l97.5,56.3l-25.8,44.7l-97.5-56.3l34.2,127.8l-40.1,10.7l-44.9-167.8
		L3340,460l9.7,74.8c1.5,11.6-11.5,19.5-21.1,12.8l-67.3-47.2v51.6l3.5,3.5l0,0l119.4,119.3l-29.3,29.3l-93.6-93.5v112.6h-51.6
		V610.5l-93.5,93.6l-29.3-29.3l122.9-122.9v-46.5l-59.9,45.8c-9.3,7.1-22.7-0.2-21.6-11.9l7.2-81.9l-44.6,25.8l-1.3,4.8l0,0
		l-43.7,163.1l-40-10.7l34.3-127.8l-97.5,56.3l-25.8-44.7l97.5-56.3l-127.8-34.3L2897,393.5z M3261,271l0.2,54l44.3-25.6l8.4-70.4
		L3261,271z M3333.6,342.5l-46.6,27.3l44.4,25.5l65.1-28.2L3333.6,342.5z M3308.1,441.5l-46.8-27l-0.2,51.2l56.7,42.7L3308.1,441.5z
		 M3209.4,468.6l0.2-54l-44.5,25.3l-8.8,70.4L3209.4,468.6z M3137.1,396.9l46.7-27.1l-44.3-25.7l-65.2,27.9L3137.1,396.9z
		 M3162.8,298l46.7,27.2l0.3-51.2l-56.5-42.8L3162.8,298z"/>
	
		<ellipse transform="matrix(0.437 -0.8994 0.8994 0.437 359.9977 1996.5479)" class="st2" cx="1774.9" cy="710.7" rx="44.1" ry="44.1"/>
	
		<ellipse transform="matrix(0.8767 -0.4811 0.4811 0.8767 -1216.7754 2808.0576)" class="st2" cx="4868.8" cy="3777.4" rx="44.1" ry="44.1"/>
	
		<ellipse transform="matrix(0.8046 -0.5938 0.5938 0.8046 -1820.4269 2110.8921)" class="st2" cx="2297.1" cy="3821.5" rx="44.1" ry="44.1"/>
	
		<ellipse transform="matrix(0.7071 -0.7071 0.7071 0.7071 -2201.416 1955.9403)" class="st2" cx="1260.3" cy="3635.3" rx="44.1" ry="44.1"/>
	
		<ellipse transform="matrix(0.8081 -0.589 0.589 0.8081 -1476.5637 2737.8899)" class="st2" cx="3464.1" cy="3635.3" rx="44.1" ry="44.1"/>
	
		<ellipse transform="matrix(0.9109 -0.4125 0.4125 0.9109 -323.4564 2204.1033)" class="st2" cx="4943.3" cy="1851.2" rx="44.1" ry="44.1"/>
	
		<ellipse transform="matrix(0.7071 -0.7071 0.7071 0.7071 455.1525 4519.9658)" class="st2" cx="5683.7" cy="1710.6" rx="44.1" ry="44.1"/>
	
		<ellipse transform="matrix(0.437 -0.8994 0.8994 0.437 553.0461 2766.6221)" class="st2" cx="2486.6" cy="941.5" rx="44.1" ry="44.1"/>
	
		<ellipse transform="matrix(0.437 -0.8994 0.8994 0.437 820.837 3694.5823)" class="st2" cx="3361.8" cy="1191.6" rx="44.1" ry="44.1"/>
	
		<ellipse transform="matrix(0.8046 -0.5938 0.5938 0.8046 -595.9711 3912.8059)" class="st2" cx="5647.2" cy="2861.9" rx="44.1" ry="44.1"/>
	
		<ellipse transform="matrix(0.8081 -0.589 0.589 0.8081 634.9618 3003.7217)" class="st2" cx="4927.9" cy="527.3" rx="44.1" ry="44.1"/>
	
		<ellipse transform="matrix(9.881535e-02 -0.9951 0.9951 9.881535e-02 4589.917 4741.625)" class="st2" cx="4912.9" cy="-163.3" rx="44.1" ry="44.1"/>
	
		<ellipse transform="matrix(0.437 -0.8994 0.8994 0.437 1928.3362 2064.5652)" class="st2" cx="2613.4" cy="-508.2" rx="44.1" ry="44.1"/>
	
		<ellipse transform="matrix(0.99 -0.1409 0.1409 0.99 64.0011 156.1173)" class="st2" cx="1134.2" cy="-373.8" rx="44.1" ry="44.1"/>
	
		<ellipse transform="matrix(0.8463 -0.5327 0.5327 0.8463 -373.0033 232.3255)" class="st2" cx="216.1" cy="762.6" rx="44.1" ry="44.1"/>
	
		<ellipse transform="matrix(0.7071 -0.7071 0.7071 0.7071 2034.9624 3761.1489)" class="st2" cx="5557.6" cy="-575.8" rx="44.1" ry="44.1"/>
	
		<ellipse transform="matrix(0.437 -0.8994 0.8994 0.437 2304.3284 3762.1614)" class="st2" cx="4157.6" cy="40.3" rx="44.1" ry="44.1"/>
	
		<ellipse transform="matrix(0.8767 -0.4811 0.4811 0.8767 496.2114 2744.6953)" class="st2" cx="5601.7" cy="404.5" rx="44.1" ry="44.1"/>
	
		<ellipse transform="matrix(0.8081 -0.589 0.589 0.8081 -312.0448 2904.9292)" class="st2" cx="4302.7" cy="1931.4" rx="44.1" ry="44.1"/>
	
		<ellipse transform="matrix(0.2662 -0.9639 0.9639 0.2662 -2754.9858 2476.0271)" class="st2" cx="248.8" cy="3047.6" rx="44.1" ry="44.1"/>
	
		<ellipse transform="matrix(0.7071 -0.7071 0.7071 0.7071 524.2463 1375.032)" class="st2" cx="1921.9" cy="54.7" rx="44.1" ry="44.1"/>
	
		<ellipse transform="matrix(0.7071 -0.7071 0.7071 0.7071 -461.5237 979.6948)" class="st2" cx="951.8" cy="1047" rx="44.1" ry="44.1"/>
	
		<ellipse transform="matrix(0.9735 -0.2286 0.2286 0.9735 -598.8021 311.6785)" class="st2" cx="1045.9" cy="2740.4" rx="44.1" ry="44.1"/>
	
		<ellipse transform="matrix(0.147 -0.9891 0.9891 0.147 -3524.2781 3412.1941)" class="st2" cx="216.1" cy="3749.4" rx="44.1" ry="44.1"/>
	
		<ellipse transform="matrix(0.2906 -0.9568 0.9568 0.2906 -1418.5452 1372.1559)" class="st2" cx="216.1" cy="1642.8" rx="44.1" ry="44.1"/>
	
		<ellipse transform="matrix(0.8016 -0.5979 0.5979 0.8016 378.4535 -11.3942)" class="st2" cx="172.1" cy="-575.8" rx="44.1" ry="44.1"/>
	
		<ellipse transform="matrix(0.6035 -0.7973 0.7973 0.6035 -1001.9055 3549.3008)" class="st2" cx="3068" cy="2782.1" rx="44.1" ry="44.1"/>
	
		<ellipse transform="matrix(0.8046 -0.5938 0.5938 0.8046 -966.1809 1861.9631)" class="st2" cx="2346" cy="2399" rx="44.1" ry="44.1"/>
</g>
<g id="Christmas_Stuff">
	<g>
		<g class="st3">
			<path class="st4" d="M4796.4,19.5v2643.4l12.2,0.3c127.2,0.2,202,110,202,242.8c0,12.1-0.9,24.1-2.7,35.8l44.8,10.3l-48.4,8.4
				c-10.2,44.3-32.6,84-63.4,115.4c15.1,10,29.3,21.2,42.4,33.6c32.3,30.6,58.1,68.1,75.1,110l112.2-97.3v-111.8h29.6l5.1,79.6
				l62.7-47.4l22,25.4l-90.6,90.6l87.2,5.1l-2.5,37.3l-119.4-13.5l-93.4,71c6.4,25,9.9,51.2,9.9,78.2
				c0,172.6-139.9,312.6-312.6,312.6c-172.6,0-312.6-139.9-312.6-312.6c0-41.4,8.1-81,22.7-117.2l-78.9-60l-119.4,13.6l-2.6-37.3
				l87.2-5.1l-90.6-90.6l22-25.4l62.7,47.4l5.1-79.6h29.6v111.8l102.4,88.9c19.6-34.7,45.6-65.3,76.5-90.1
				c7.5-6.1,15.4-11.8,23.5-17.1c-43.1-43.7-69.7-103.6-69.7-169.8c0-133.5,85.2-246.8,241.6-244.4V19.5H4796.4z"/>
			<path class="st5" d="M4793.3,19.4v2643.4l12.2,0.3c127.2,0.2,202,110,202,242.8c0,12.1-0.9,24.1-2.7,35.8l44.8,10.3l-48.4,8.4
				c-10.2,44.3-32.6,84-63.4,115.4c15.1,10,29.3,21.2,42.4,33.6c32.3,30.6,58.1,68.1,75.1,110l112.2-97.3v-111.8h29.6l5.1,79.6
				l62.7-47.4l22,25.4l-90.6,90.6l87.2,5.1l-2.5,37.3l-119.4-13.5l-93.4,71c6.4,25,9.9,51.2,9.9,78.2
				c0,172.6-139.9,312.6-312.6,312.6c-172.6,0-312.6-139.9-312.6-312.6c0-41.4,8.1-81,22.7-117.2l-78.9-60l-119.4,13.6l-2.6-37.3
				l87.2-5.1l-90.6-90.6l22-25.4l62.7,47.4l5.1-79.6h29.6v111.8l102.4,88.9c19.6-34.7,45.6-65.3,76.5-90.1
				c7.5-6.1,15.4-11.8,23.5-17.1c-43.1-43.7-69.7-103.6-69.7-169.8c0-133.5,85.2-246.8,241.6-244.4V19.4H4793.3z"/>
			<path class="st6" d="M4790.1,19.3v2643.4l12.2,0.3c127.2,0.2,202,110,202,242.8c0,12.1-0.9,24.1-2.7,35.8l44.8,10.3l-48.4,8.4
				c-10.2,44.3-32.6,84-63.4,115.4c15.1,10,29.3,21.2,42.4,33.6c32.3,30.6,58.1,68.1,75.1,110l112.2-97.3v-111.8h29.6l5.1,79.6
				l62.7-47.4l22,25.4l-90.6,90.6l87.2,5.1l-2.5,37.3l-119.4-13.5l-93.4,71c6.4,25,9.9,51.2,9.9,78.2
				c0,172.6-139.9,312.6-312.6,312.6c-172.6,0-312.6-139.9-312.6-312.6c0-41.4,8.1-81,22.7-117.2l-78.9-60l-119.4,13.6l-2.6-37.3
				l87.2-5.1l-90.6-90.6l22-25.4l62.7,47.4l5.1-79.6h29.6V3094l102.4,88.9c19.6-34.7,45.6-65.3,76.5-90.1
				c7.5-6.1,15.4-11.8,23.5-17.1c-43.1-43.7-69.7-103.6-69.7-169.8c0-133.5,85.2-246.8,241.6-244.4V19.3H4790.1z"/>
			<path class="st7" d="M4786.9,19.2v2643.4l12.2,0.3c127.2,0.2,202,110,202,242.8c0,12.1-0.9,24.1-2.7,35.8l44.8,10.3l-48.4,8.4
				c-10.2,44.3-32.6,84-63.4,115.4c15.1,10,29.3,21.2,42.4,33.6c32.3,30.6,58.1,68.1,75.1,110l112.2-97.3v-111.8h29.6l5.1,79.6
				l62.7-47.4l22,25.4l-90.6,90.6l87.2,5.1l-2.5,37.3l-119.4-13.5l-93.4,71c6.4,25,9.9,51.2,9.9,78.2
				c0,172.6-139.9,312.6-312.6,312.6c-172.6,0-312.6-139.9-312.6-312.6c0-41.4,8.1-81,22.7-117.2l-78.9-60l-119.4,13.6l-2.6-37.3
				l87.2-5.1l-90.6-90.6l22-25.4l62.7,47.4l5.1-79.6h29.6v111.8l102.4,88.9c19.6-34.7,45.6-65.3,76.5-90.1
				c7.5-6.1,15.4-11.8,23.5-17.1c-43.1-43.7-69.7-103.6-69.7-169.8c0-133.5,85.2-246.8,241.6-244.4V19.2H4786.9z"/>
			<path class="st8" d="M4783.8,19.1v2643.4l12.2,0.3c127.2,0.2,202,110,202,242.8c0,12.1-0.9,24.1-2.7,35.8l44.8,10.3l-48.4,8.4
				c-10.2,44.3-32.6,84-63.4,115.4c15.1,10,29.3,21.2,42.4,33.6c32.3,30.6,58.1,68.1,75.1,110l112.2-97.3V3010h29.6l5.1,79.6
				l62.7-47.4l22,25.4l-90.6,90.6l87.2,5.1l-2.5,37.3l-119.4-13.5l-93.4,71c6.4,25,9.9,51.2,9.9,78.2
				c0,172.6-139.9,312.6-312.6,312.6c-172.6,0-312.6-139.9-312.6-312.6c0-41.4,8.1-81,22.7-117.2l-78.9-60l-119.4,13.6l-2.6-37.3
				l87.2-5.1l-90.6-90.6l22-25.4l62.7,47.4l5.1-79.6h29.6v111.8l102.4,88.9c19.6-34.7,45.6-65.3,76.5-90.1
				c7.5-6.1,15.4-11.8,23.5-17.1c-43.1-43.7-69.7-103.6-69.7-169.8c0-133.5,85.2-246.8,241.6-244.4V19.1H4783.8z"/>
			<path class="st9" d="M4780.6,18.9v2643.4l12.2,0.3c127.2,0.2,202,110,202,242.8c0,12.1-0.9,24.1-2.7,35.8l44.8,10.3l-48.4,8.4
				c-10.2,44.3-32.6,84-63.4,115.4c15.1,10,29.3,21.2,42.4,33.6c32.3,30.6,58.1,68.1,75.1,110l112.2-97.3v-111.8h29.6l5.1,79.6
				l62.7-47.4l22,25.4l-90.6,90.6l87.2,5.1l-2.5,37.3l-119.4-13.5l-93.4,71c6.4,25,9.9,51.2,9.9,78.2
				c0,172.6-139.9,312.6-312.6,312.6c-172.6,0-312.6-139.9-312.6-312.6c0-41.4,8.1-81,22.7-117.2l-78.9-60l-119.4,13.6l-2.6-37.3
				l87.2-5.1l-90.6-90.6l22-25.4l62.7,47.4l5.1-79.6h29.6v111.8l102.4,88.9c19.6-34.7,45.6-65.3,76.5-90.1
				c7.5-6.1,15.4-11.8,23.5-17.1c-43.1-43.7-69.7-103.6-69.7-169.8c0-133.5,85.2-246.8,241.6-244.4V18.9H4780.6z"/>
			<path class="st10" d="M4777.4,18.8v2643.4l12.2,0.3c127.2,0.2,202,110,202,242.8c0,12.1-0.9,24.1-2.7,35.8l44.8,10.3l-48.4,8.4
				c-10.2,44.3-32.6,84-63.4,115.4c15.1,10,29.3,21.2,42.4,33.6c32.3,30.6,58.1,68.1,75.1,110l112.2-97.3v-111.8h29.6l5.1,79.6
				l62.7-47.4l22,25.4l-90.6,90.6l87.2,5.1l-2.5,37.3l-119.4-13.5l-93.4,71c6.4,25,9.9,51.2,9.9,78.2
				c0,172.6-139.9,312.6-312.6,312.6c-172.6,0-312.6-139.9-312.6-312.6c0-41.4,8.1-81,22.7-117.2l-78.9-60l-119.4,13.6l-2.6-37.3
				l87.2-5.1l-90.6-90.6l22-25.4l62.7,47.4l5.1-79.6h29.6v111.8l102.4,88.9c19.6-34.7,45.6-65.3,76.5-90.1
				c7.5-6.1,15.4-11.8,23.5-17.1c-43.1-43.7-69.7-103.6-69.7-169.8c0-133.5,85.2-246.8,241.6-244.4V18.8H4777.4z"/>
			<path class="st11" d="M4774.2,18.7v2643.4l12.2,0.3c127.2,0.2,202,110,202,242.8c0,12.1-0.9,24.1-2.7,35.8l44.8,10.3l-48.4,8.4
				c-10.2,44.3-32.6,84-63.4,115.4c15.1,10,29.3,21.2,42.4,33.6c32.3,30.6,58.1,68.1,75.1,110l112.2-97.3v-111.8h29.6l5.1,79.6
				l62.7-47.4l22,25.4l-90.6,90.6l87.2,5.1l-2.5,37.3l-119.4-13.5l-93.4,71c6.4,25,9.9,51.2,9.9,78.2
				c0,172.6-139.9,312.6-312.6,312.6c-172.6,0-312.6-139.9-312.6-312.6c0-41.4,8.1-81,22.7-117.2l-78.9-60l-119.4,13.6l-2.6-37.3
				l87.2-5.1l-90.6-90.6l22-25.4l62.7,47.4l5.1-79.6h29.6v111.8l102.4,88.9c19.6-34.7,45.6-65.3,76.5-90.1
				c7.5-6.1,15.4-11.8,23.5-17.1c-43.1-43.7-69.7-103.6-69.7-169.8c0-133.5,85.2-246.8,241.6-244.4V18.7H4774.2z"/>
			<path class="st12" d="M4771.1,18.6V2662l12.2,0.3c127.2,0.2,202,110,202,242.8c0,12.1-0.9,24.1-2.7,35.8l44.8,10.3l-48.4,8.4
				c-10.2,44.3-32.6,84-63.4,115.4c15.1,10,29.3,21.2,42.4,33.6c32.3,30.6,58.1,68.1,75.1,110l112.2-97.3v-111.8h29.6l5.1,79.6
				l62.7-47.4l22,25.4l-90.6,90.6l87.2,5.1l-2.5,37.3l-119.4-13.5l-93.4,71c6.4,25,9.9,51.2,9.9,78.2
				c0,172.6-139.9,312.6-312.6,312.6c-172.6,0-312.6-139.9-312.6-312.6c0-41.4,8.1-81,22.7-117.2l-78.9-60l-119.4,13.6l-2.6-37.3
				l87.2-5.1l-90.6-90.6l22-25.4l62.7,47.4l5.1-79.6h29.6v111.8l102.4,88.9c19.6-34.7,45.6-65.3,76.5-90.1
				c7.5-6.1,15.4-11.8,23.5-17.1c-43.1-43.7-69.7-103.6-69.7-169.8c0-133.5,85.2-246.8,241.6-244.4V18.6H4771.1z"/>
			<path d="M4767.9,18.5v2643.4l12.2,0.3c127.2,0.2,202,110,202,242.8c0,12.1-0.9,24.1-2.7,35.8l44.8,10.3l-48.4,8.4
				c-10.2,44.3-32.6,84-63.4,115.4c15.1,10,29.3,21.2,42.4,33.6c32.3,30.6,58.1,68.1,75.1,110l112.2-97.3v-111.8h29.6l5.1,79.6
				l62.7-47.4l22,25.4l-90.6,90.6l87.2,5.1l-2.5,37.3l-119.4-13.5l-93.4,71c6.4,25,9.9,51.2,9.9,78.2
				c0,172.6-139.9,312.6-312.6,312.6c-172.6,0-312.6-139.9-312.6-312.6c0-41.4,8.1-81,22.7-117.2l-78.9-60L4252,3172l-2.6-37.3
				l87.2-5.1l-90.6-90.6l22-25.4l62.7,47.4l5.1-79.6h29.6v111.8l102.4,88.9c19.6-34.7,45.6-65.3,76.5-90.1
				c7.5-6.1,15.4-11.8,23.5-17.1c-43.1-43.7-69.7-103.6-69.7-169.8c0-133.5,85.2-246.8,241.6-244.4V18.5H4767.9z"/>
		</g>
		<path class="st13" d="M4746.5,0v2643.4l12.2,0.3c127.2,0.2,202,110,202,242.8c0,12.1-0.9,24.1-2.7,35.8l44.8,10.3l-48.4,8.4
			c-10.2,44.3-32.6,84-63.4,115.4c15.1,10,29.3,21.2,42.4,33.6c32.3,30.6,58.1,68.1,75.1,110l112.2-97.3v-111.8h29.6l5.1,79.6
			l62.7-47.4l22,25.4l-90.6,90.6l87.2,5.1l-2.5,37.3l-119.4-13.5l-93.4,71c6.4,25,9.9,51.2,9.9,78.2
			c0,172.6-139.9,312.6-312.6,312.6c-172.6,0-312.6-139.9-312.6-312.6c0-41.4,8.1-81,22.7-117.2l-78.9-60l-119.4,13.6l-2.6-37.3
			l87.2-5.1l-90.6-90.6l22-25.4l62.7,47.4l5.1-79.6h29.6v111.8l102.4,88.9c19.6-34.7,45.6-65.3,76.5-90.1
			c7.5-6.1,15.4-11.8,23.5-17.1c-43.1-43.7-69.7-103.6-69.7-169.8c0-133.5,85.2-246.8,241.6-244.4V0H4746.5z"/>
	</g>
	<g>
		<g class="st3">
			<path class="st4" d="M4233.6,3.1v1251.7l12.7,23l57.3,5.7l-39.3,42l12.3,56.2l-52.1-24.4l-0.1,0c8.6,59.7,39.8,192.3,150.5,257.6
				c0,0-13,31.2-91,28.6c0,0,28.6,189.8,161.2,239.2c0,0-26.3,29-84,4.7c0,0-4.6,164.1,165.2,205.7c0,0,3.5,50.3-105.7,55.5
				c0,0,31.2,263.4,232.2,320.7h-397.8v206.6h-67.6v-206.6h-397.8c201.1-57.2,232.2-320.7,232.2-320.7
				c-109.2-5.2-105.7-55.5-105.7-55.5c169.9-41.6,165.2-205.7,165.2-205.7c-57.8,24.3-84-4.7-84-4.7
				c132.6-49.4,161.2-239.2,161.2-239.2c-78,2.6-91-28.6-91-28.6c108.3-63.8,140.5-192,149.9-253.5l-42.7,25l7.1-57.1l-43-38.3
				l56.5-10.9l13.4-30.7V3.1H4233.6z"/>
			<path class="st5" d="M4230.3,2.9v1251.7l12.7,23l57.3,5.7l-39.3,42l12.3,56.2l-52.1-24.4l-0.1,0c8.6,59.7,39.8,192.3,150.5,257.6
				c0,0-13,31.2-91,28.6c0,0,28.6,189.8,161.2,239.2c0,0-26.3,29-84,4.7c0,0-4.6,164.1,165.2,205.7c0,0,3.5,50.3-105.7,55.5
				c0,0,31.2,263.4,232.2,320.7h-397.8v206.6h-67.6v-206.6h-397.8c201.1-57.2,232.2-320.7,232.2-320.7
				c-109.2-5.2-105.7-55.5-105.7-55.5c169.9-41.6,165.2-205.7,165.2-205.7c-57.8,24.3-84-4.7-84-4.7
				c132.6-49.4,161.2-239.2,161.2-239.2c-78,2.6-91-28.6-91-28.6c108.3-63.8,140.5-192,149.9-253.5l-42.7,25l7.1-57.1l-43-38.3
				l56.5-10.9l13.4-30.7V2.9H4230.3z"/>
			<path class="st6" d="M4227,2.7v1251.7l12.7,23l57.3,5.7l-39.3,42l12.3,56.2l-52.1-24.4l-0.1,0c8.6,59.7,39.8,192.3,150.5,257.6
				c0,0-13,31.2-91,28.6c0,0,28.6,189.8,161.2,239.2c0,0-26.3,29-84,4.7c0,0-4.6,164.1,165.2,205.7c0,0,3.5,50.3-105.7,55.5
				c0,0,31.2,263.4,232.2,320.7h-397.8v206.6h-67.6v-206.6H3783c201.1-57.2,232.2-320.7,232.2-320.7
				c-109.2-5.2-105.7-55.5-105.7-55.5c169.9-41.6,165.2-205.7,165.2-205.7c-57.8,24.3-84-4.7-84-4.7
				c132.6-49.4,161.2-239.2,161.2-239.2c-78,2.6-91-28.6-91-28.6c108.3-63.8,140.5-192,149.9-253.5l-42.7,25l7.1-57.1l-43-38.3
				l56.5-10.9l13.4-30.7V2.7H4227z"/>
			<path class="st7" d="M4223.6,2.5v1251.7l12.7,23l57.3,5.7l-39.3,42l12.3,56.2l-52.1-24.4l-0.1,0c8.6,59.7,39.8,192.3,150.5,257.6
				c0,0-13,31.2-91,28.6c0,0,28.6,189.8,161.2,239.2c0,0-26.3,29-84,4.7c0,0-4.6,164.1,165.2,205.7c0,0,3.5,50.3-105.7,55.5
				c0,0,31.2,263.4,232.2,320.7h-397.8V2675h-67.6v-206.6h-397.8c201.1-57.2,232.2-320.7,232.2-320.7
				c-109.2-5.2-105.7-55.5-105.7-55.5c169.9-41.6,165.2-205.7,165.2-205.7c-57.8,24.3-84-4.7-84-4.7
				c132.6-49.4,161.2-239.2,161.2-239.2c-78,2.6-91-28.6-91-28.6c108.3-63.8,140.5-192,149.9-253.5l-42.7,25l7.1-57.1l-43-38.3
				l56.5-10.9l13.4-30.7V2.5H4223.6z"/>
			<path class="st8" d="M4220.3,2.2v1251.7l12.7,23l57.3,5.7l-39.3,42l12.3,56.2l-52.1-24.4l-0.1,0c8.6,59.7,39.8,192.3,150.5,257.6
				c0,0-13,31.2-91,28.6c0,0,28.6,189.8,161.2,239.2c0,0-26.3,29-84,4.7c0,0-4.6,164.1,165.2,205.7c0,0,3.5,50.3-105.7,55.5
				c0,0,31.2,263.4,232.2,320.7h-397.8v206.6h-67.6v-206.6h-397.8c201.1-57.2,232.2-320.7,232.2-320.7
				c-109.2-5.2-105.7-55.5-105.7-55.5c169.9-41.6,165.2-205.7,165.2-205.7c-57.8,24.3-84-4.7-84-4.7
				c132.6-49.4,161.2-239.2,161.2-239.2c-78,2.6-91-28.6-91-28.6c108.3-63.8,140.5-192,149.9-253.5l-42.7,25l7.1-57.1l-43-38.3
				l56.5-10.9l13.4-30.7V2.2H4220.3z"/>
			<path class="st9" d="M4217,2v1251.7l12.7,23l57.3,5.7l-39.3,42l12.3,56.2l-52.1-24.4l-0.1,0c8.6,59.7,39.8,192.3,150.5,257.6
				c0,0-13,31.2-91,28.6c0,0,28.6,189.8,161.2,239.2c0,0-26.3,29-84,4.7c0,0-4.6,164.1,165.2,205.7c0,0,3.5,50.3-105.7,55.5
				c0,0,31.2,263.4,232.2,320.7h-397.8v206.6h-67.6V2468H3773c201.1-57.2,232.2-320.7,232.2-320.7c-109.2-5.2-105.7-55.5-105.7-55.5
				c169.9-41.6,165.2-205.7,165.2-205.7c-57.8,24.3-84-4.7-84-4.7c132.6-49.4,161.2-239.2,161.2-239.2c-78,2.6-91-28.6-91-28.6
				c108.3-63.8,140.5-192,149.9-253.5l-42.7,25l7.1-57.1l-43-38.3l56.5-10.9l13.4-30.7V2H4217z"/>
			<path class="st10" d="M4213.6,1.8v1251.7l12.7,23l57.3,5.7l-39.3,42l12.3,56.2l-52.1-24.4l-0.1,0
				c8.6,59.7,39.8,192.3,150.5,257.6c0,0-13,31.2-91,28.6c0,0,28.6,189.8,161.2,239.2c0,0-26.3,29-84,4.7c0,0-4.6,164.1,165.2,205.7
				c0,0,3.5,50.3-105.7,55.5c0,0,31.2,263.4,232.2,320.7h-397.8v206.6h-67.6v-206.6h-397.8c201.1-57.2,232.2-320.7,232.2-320.7
				c-109.2-5.2-105.7-55.5-105.7-55.5c169.9-41.6,165.2-205.7,165.2-205.7c-57.8,24.3-84-4.7-84-4.7
				c132.6-49.4,161.2-239.2,161.2-239.2c-78,2.6-91-28.6-91-28.6c108.3-63.8,140.5-192,149.9-253.5l-42.7,25l7.1-57.1l-43-38.3
				l56.5-10.9l13.4-30.7V1.8H4213.6z"/>
			<path class="st11" d="M4210.3,1.6v1251.7l12.7,23l57.3,5.7l-39.3,42l12.3,56.2l-52.1-24.4l-0.1,0
				c8.6,59.7,39.8,192.3,150.5,257.6c0,0-13,31.2-91,28.6c0,0,28.6,189.8,161.2,239.2c0,0-26.3,29-84,4.7c0,0-4.6,164.1,165.2,205.7
				c0,0,3.5,50.3-105.7,55.5c0,0,31.2,263.4,232.2,320.7h-397.8v206.6h-67.6v-206.6h-397.8c201.1-57.2,232.2-320.7,232.2-320.7
				c-109.2-5.2-105.7-55.5-105.7-55.5c169.9-41.6,165.2-205.7,165.2-205.7c-57.8,24.3-84-4.7-84-4.7
				c132.6-49.4,161.2-239.2,161.2-239.2c-78,2.6-91-28.6-91-28.6c108.3-63.8,140.5-192,149.9-253.5l-42.7,25l7.1-57.1l-43-38.3
				l56.5-10.9l13.4-30.7V1.6H4210.3z"/>
			<path class="st12" d="M4207,1.4v1251.7l12.7,23l57.3,5.7l-39.3,42l12.3,56.2l-52.1-24.4l-0.1,0c8.6,59.7,39.8,192.3,150.5,257.6
				c0,0-13,31.2-91,28.6c0,0,28.6,189.8,161.2,239.2c0,0-26.3,29-84,4.7c0,0-4.6,164.1,165.2,205.7c0,0,3.5,50.3-105.7,55.5
				c0,0,31.2,263.4,232.2,320.7h-397.8v206.6h-67.6v-206.6H3763c201.1-57.2,232.2-320.7,232.2-320.7
				c-109.2-5.2-105.7-55.5-105.7-55.5c169.9-41.6,165.2-205.7,165.2-205.7c-57.8,24.3-84-4.7-84-4.7
				c132.6-49.4,161.2-239.2,161.2-239.2c-78,2.6-91-28.6-91-28.6c108.3-63.8,140.5-192,149.9-253.5l-42.7,25l7.1-57.1l-43-38.3
				l56.5-10.9l13.4-30.7V1.4H4207z"/>
			<path d="M4203.6,1.1v1251.7l12.7,23l57.3,5.7l-39.3,42l12.3,56.2l-52.1-24.4l-0.1,0c8.6,59.7,39.8,192.3,150.5,257.6
				c0,0-13,31.2-91,28.6c0,0,28.6,189.8,161.2,239.2c0,0-26.3,29-84,4.7c0,0-4.6,164.1,165.2,205.7c0,0,3.5,50.3-105.7,55.5
				c0,0,31.2,263.4,232.2,320.7h-397.8v206.6h-67.6v-206.6h-397.8c201.1-57.2,232.2-320.7,232.2-320.7
				c-109.2-5.2-105.7-55.5-105.7-55.5c169.9-41.6,165.2-205.7,165.2-205.7c-57.8,24.3-84-4.7-84-4.7
				c132.6-49.4,161.2-239.2,161.2-239.2c-78,2.6-91-28.6-91-28.6c108.3-63.8,140.5-192,149.9-253.5l-42.7,25l7.1-57.1l-43-38.3
				l56.5-10.9l13.4-30.7V1.1H4203.6z"/>
		</g>
		<path class="st13" d="M4166.6,0v1251.7l12.7,23l57.3,5.7l-39.3,42l12.3,56.2l-52.1-24.4l-0.1,0c8.6,59.7,39.8,192.3,150.5,257.6
			c0,0-13,31.2-91,28.6c0,0,28.6,189.8,161.2,239.2c0,0-26.3,29-84,4.7c0,0-4.6,164.1,165.2,205.7c0,0,3.5,50.3-105.7,55.5
			c0,0,31.2,263.4,232.2,320.7h-397.8v206.6h-67.6v-206.6h-397.8c201.1-57.2,232.2-320.7,232.2-320.7
			c-109.2-5.2-105.7-55.5-105.7-55.5c169.9-41.6,165.2-205.7,165.2-205.7c-57.8,24.3-84-4.7-84-4.7
			c132.6-49.4,161.2-239.2,161.2-239.2c-78,2.6-91-28.6-91-28.6c108.3-63.8,140.5-192,149.9-253.5l-42.7,25l7.1-57.1l-43-38.3
			l56.5-10.9l13.4-30.7V0H4166.6z"/>
	</g>
	<g>
		<g class="st3">
			<path class="st4" d="M5604.6,1853.8c0,0-86.5,53.6-209.6,58.5c-0.9,27.1-17.9,48.8-38.9,48.8c-20.9,0-37.9-21.7-38.8-48.8
				c-123.1-4.9-209.6-58.5-209.6-58.5c-102.6-63.7-11.8-102.6-11.8-102.6c11.6-4.5,21.5-9.8,30.2-15.4c11.3-7.4,20.4-15.5,27.5-23.7
				c18.1-20.7,24.3-41.9,26.4-53.6c1-5.6,1.1-9,1.1-9c0.4-9,1-17.7,1.7-26.2c16-192.7,93.3-239.3,142.5-249.1
				c0.2-14.2,8-26.3,19.1-31.4V0.2h23.4v1342.7c11,5.2,18.8,17.3,19,31.4c49.2,9.8,126.6,56.3,142.5,249.1
				c0.7,8.4,1.3,17.1,1.8,26.1c0,0,0,3.4,1.1,9.1c2.3,12.8,9.6,36.9,31.9,59.4c8.8,8.9,20.1,17.5,34.3,25c5.5,3,11.5,5.7,17.9,8.3
				C5616.4,1751.3,5707.2,1790.2,5604.6,1853.8z"/>
			<path class="st5" d="M5600.4,1854c0,0-86.5,53.6-209.6,58.5c-0.9,27.1-17.9,48.8-38.9,48.8c-20.9,0-37.9-21.7-38.8-48.8
				c-123.1-4.9-209.6-58.5-209.6-58.5c-102.6-63.7-11.8-102.6-11.8-102.6c11.6-4.5,21.5-9.8,30.2-15.4c11.3-7.4,20.4-15.5,27.5-23.7
				c18.1-20.7,24.3-41.9,26.4-53.6c1-5.6,1.1-9,1.1-9c0.4-9,1-17.7,1.7-26.2c16-192.7,93.3-239.3,142.5-249.1
				c0.2-14.2,8-26.3,19.1-31.4V0.3h23.4V1343c11,5.2,18.8,17.3,19,31.4c49.2,9.8,126.6,56.3,142.5,249.1c0.7,8.4,1.3,17.1,1.8,26.1
				c0,0,0.1,3.4,1.1,9.1c2.4,12.8,9.6,36.9,31.9,59.4c8.8,8.9,20.1,17.4,34.3,25c5.5,2.9,11.5,5.7,17.9,8.3
				C5612.2,1751.4,5703,1790.3,5600.4,1854z"/>
			<path class="st6" d="M5596.2,1854.1c0,0-86.5,53.6-209.6,58.5c-0.9,27.1-17.9,48.8-38.9,48.8c-20.9,0-37.9-21.7-38.8-48.8
				c-123.1-4.9-209.6-58.5-209.6-58.5c-102.6-63.7-11.8-102.6-11.8-102.6c11.6-4.5,21.5-9.8,30.2-15.4c11.3-7.4,20.4-15.5,27.5-23.7
				c18.1-20.7,24.3-41.9,26.4-53.6c1-5.6,1.1-9,1.1-9c0.4-9,1-17.7,1.7-26.2c16-192.7,93.3-239.3,142.5-249.1
				c0.2-14.2,8-26.3,19.1-31.4V0.4h23.4v1342.7c11,5.2,18.8,17.3,19,31.4c49.2,9.8,126.6,56.3,142.5,249.1
				c0.7,8.4,1.3,17.1,1.8,26.1c0,0,0.1,3.4,1.1,9.1c2.4,12.8,9.6,36.9,31.9,59.4c8.8,8.9,20.1,17.4,34.3,25
				c5.5,2.9,11.5,5.7,17.9,8.3C5607.9,1751.5,5698.8,1790.4,5596.2,1854.1z"/>
			<path class="st7" d="M5591.9,1854.2c0,0-86.5,53.6-209.6,58.5c-0.9,27.1-17.9,48.8-38.9,48.8c-20.9,0-37.9-21.7-38.8-48.8
				c-123.1-4.9-209.6-58.5-209.6-58.5c-102.6-63.7-11.8-102.6-11.8-102.6c11.6-4.5,21.5-9.8,30.2-15.4c11.3-7.4,20.4-15.5,27.5-23.7
				c18.1-20.7,24.3-41.9,26.4-53.6c1-5.6,1.1-9,1.1-9c0.4-9,1-17.7,1.7-26.2c16-192.7,93.3-239.3,142.5-249.1
				c0.2-14.2,8-26.3,19.1-31.4V0.5h23.4v1342.7c11,5.2,18.8,17.3,19,31.4c49.2,9.8,126.6,56.3,142.5,249.1
				c0.7,8.4,1.3,17.1,1.8,26.1c0,0,0.1,3.4,1.1,9.1c2.4,12.8,9.6,36.9,31.9,59.4c8.8,8.9,20.1,17.4,34.3,25
				c5.5,2.9,11.5,5.7,17.9,8.3C5603.7,1751.6,5694.5,1790.5,5591.9,1854.2z"/>
			<path class="st8" d="M5587.7,1854.3c0,0-86.5,53.6-209.6,58.5c-0.9,27.1-17.9,48.8-38.9,48.8c-20.9,0-37.9-21.7-38.8-48.8
				c-123.1-4.9-209.6-58.5-209.6-58.5c-102.6-63.7-11.8-102.6-11.8-102.6c11.6-4.5,21.5-9.8,30.2-15.4c11.3-7.4,20.4-15.5,27.5-23.7
				c18.1-20.7,24.3-41.9,26.4-53.6c1-5.6,1.1-9,1.1-9c0.4-9,1-17.7,1.7-26.2c16-192.7,93.3-239.3,142.5-249.1
				c0.2-14.2,8-26.3,19.1-31.4V0.6h23.4v1342.7c11,5.2,18.8,17.3,19,31.4c49.2,9.8,126.6,56.3,142.5,249.1
				c0.7,8.4,1.3,17.1,1.8,26.1c0,0,0.1,3.4,1.1,9.1c2.4,12.8,9.6,36.9,31.9,59.4c8.8,8.9,20.1,17.4,34.3,25
				c5.5,2.9,11.5,5.7,17.9,8.3C5599.5,1751.7,5690.3,1790.6,5587.7,1854.3z"/>
			<path class="st9" d="M5583.5,1854.4c0,0-86.5,53.6-209.6,58.5c-0.9,27.1-17.9,48.8-38.9,48.8c-20.9,0-37.9-21.7-38.8-48.8
				c-123.1-5-209.6-58.5-209.6-58.5c-102.6-63.7-11.8-102.6-11.8-102.6c11.6-4.6,21.5-9.8,30.2-15.4c11.3-7.4,20.4-15.5,27.5-23.7
				c18.1-20.7,24.3-41.9,26.4-53.6c1-5.6,1.1-9,1.1-9c0.4-9,1-17.7,1.7-26.2c16-192.7,93.3-239.3,142.5-249.1
				c0.2-14.2,8-26.3,19.1-31.4V0.7h23.4v1342.7c11,5.2,18.8,17.3,19,31.4c49.2,9.8,126.6,56.3,142.5,249.1
				c0.7,8.4,1.3,17.1,1.8,26.1c0,0,0.1,3.4,1.1,9.1c2.4,12.8,9.6,36.9,31.9,59.4c8.8,8.9,20.1,17.4,34.3,25
				c5.5,2.9,11.5,5.7,17.9,8.3C5595.3,1751.8,5686.1,1790.7,5583.5,1854.4z"/>
			<path class="st10" d="M5579.3,1854.5c0,0-86.5,53.6-209.6,58.5c-0.9,27.1-17.9,48.8-38.9,48.8c-20.9,0-37.9-21.7-38.8-48.8
				c-123.1-4.9-209.6-58.5-209.6-58.5c-102.6-63.7-11.8-102.6-11.8-102.6c11.6-4.5,21.5-9.8,30.2-15.4c11.3-7.4,20.4-15.6,27.5-23.7
				c18.1-20.7,24.3-41.9,26.4-53.6c1-5.6,1.1-9,1.1-9c0.4-9,1-17.7,1.7-26.2c16-192.7,93.3-239.3,142.5-249.1
				c0.2-14.2,8-26.3,19.1-31.4V0.8h23.4v1342.7c11,5.1,18.8,17.3,19,31.4c49.2,9.8,126.6,56.3,142.5,249.1
				c0.7,8.4,1.3,17.1,1.8,26.1c0,0,0.1,3.4,1.1,9.1c2.4,12.8,9.6,36.9,31.9,59.4c8.8,8.9,20.1,17.4,34.3,25
				c5.5,2.9,11.5,5.7,17.9,8.3C5591.1,1751.9,5681.9,1790.8,5579.3,1854.5z"/>
			<path class="st11" d="M5575.1,1854.6c0,0-86.5,53.6-209.6,58.5c-0.9,27.1-17.9,48.8-38.9,48.8c-20.9,0-37.9-21.7-38.8-48.8
				c-123.1-4.9-209.6-58.5-209.6-58.5c-102.6-63.7-11.8-102.6-11.8-102.6c11.6-4.5,21.5-9.8,30.2-15.4c11.3-7.4,20.4-15.5,27.5-23.7
				c18.1-20.7,24.3-41.9,26.4-53.6c1-5.6,1.1-9,1.1-9c0.4-9,1-17.7,1.7-26.2c16-192.7,93.3-239.3,142.5-249.1
				c0.2-14.2,8-26.3,19.1-31.4V0.9h23.4v1342.7c11,5.2,18.8,17.3,19,31.4c49.2,9.8,126.6,56.3,142.5,249.1
				c0.7,8.4,1.3,17.1,1.8,26.1c0,0,0.1,3.4,1.1,9.1c2.4,12.8,9.6,36.9,31.9,59.4c8.8,8.9,20.1,17.4,34.3,25
				c5.5,2.9,11.5,5.7,17.9,8.3C5586.8,1752,5677.7,1791,5575.1,1854.6z"/>
			<path class="st12" d="M5570.8,1854.7c0,0-86.5,53.6-209.6,58.5c-0.9,27.1-17.9,48.8-38.9,48.8c-20.9,0-37.9-21.7-38.8-48.8
				c-123.1-4.9-209.6-58.5-209.6-58.5c-102.6-63.7-11.8-102.6-11.8-102.6c11.6-4.5,21.5-9.8,30.2-15.4c11.3-7.4,20.4-15.6,27.5-23.7
				c18.1-20.7,24.3-41.9,26.4-53.6c1-5.6,1.1-9,1.1-9c0.4-9,1-17.7,1.7-26.2c16-192.7,93.3-239.3,142.5-249.1
				c0.2-14.2,8-26.3,19.1-31.4V1.1h23.4v1342.7c11,5.1,18.8,17.3,19,31.4c49.2,9.8,126.6,56.3,142.5,249.1
				c0.7,8.4,1.3,17.1,1.8,26.1c0,0,0.1,3.4,1.1,9.1c2.4,12.8,9.6,36.9,31.9,59.4c8.8,8.9,20.1,17.4,34.3,25
				c5.5,2.9,11.5,5.7,17.9,8.3C5582.6,1752.1,5673.5,1791.1,5570.8,1854.7z"/>
			<path d="M5566.6,1854.8c0,0-86.5,53.6-209.6,58.5c-0.9,27.1-17.9,48.8-38.9,48.8c-20.9,0-37.9-21.7-38.8-48.8
				c-123.1-4.9-209.6-58.5-209.6-58.5c-102.6-63.7-11.8-102.6-11.8-102.6c11.6-4.5,21.5-9.8,30.2-15.4c11.3-7.4,20.4-15.5,27.5-23.7
				c18.1-20.7,24.3-41.9,26.4-53.6c1-5.6,1.1-9,1.1-9c0.4-9,1-17.7,1.7-26.2c16-192.7,93.3-239.3,142.5-249.1
				c0.2-14.2,8-26.3,19.1-31.4V1.2h23.4v1342.7c11,5.2,18.8,17.3,19,31.4c49.2,9.8,126.6,56.3,142.5,249.1
				c0.7,8.4,1.3,17.1,1.8,26.1c0,0,0,3.4,1.1,9.1c2.3,12.8,9.6,36.9,31.9,59.4c8.8,8.9,20.1,17.5,34.3,25c5.5,3,11.5,5.7,17.9,8.3
				C5578.4,1752.3,5669.2,1791.2,5566.6,1854.8z"/>
		</g>
		<path class="st13" d="M5544.2,1853.7c0,0-86.5,53.6-209.6,58.5c-0.9,27.1-17.9,48.8-38.9,48.8c-20.9,0-37.9-21.7-38.8-48.8
			c-123.1-4.9-209.6-58.5-209.6-58.5c-102.6-63.7-11.8-102.6-11.8-102.6c11.6-4.5,21.5-9.8,30.2-15.4c11.3-7.4,20.4-15.5,27.5-23.7
			c18.1-20.7,24.3-41.9,26.4-53.6c1-5.6,1.1-9,1.1-9c0.4-9,1-17.7,1.7-26.2c16-192.7,93.3-239.3,142.5-249.1
			c0.2-14.2,8-26.3,19.1-31.4V0h23.4v1342.7c11,5.2,18.8,17.3,19,31.4c49.2,9.8,126.6,56.3,142.5,249.1c0.7,8.4,1.3,17.1,1.8,26.1
			c0,0,0,3.4,1.1,9.1c2.3,12.8,9.6,36.9,31.9,59.4c8.8,8.9,20.1,17.5,34.3,25c5.5,3,11.5,5.7,17.9,8.3
			C5556,1751.1,5646.8,1790,5544.2,1853.7z"/>
	</g>
</g>
</svg>
